<svg width="365" height="285" viewBox="0 0 365 285" fill="none" xmlns="http://www.w3.org/2000/svg">
<g opacity="0.7">
<path d="M284.3 181.725C284.3 209.025 273.7 234.725 254.3 254.125C234.3 274.025 208.1 284.025 181.9 284.025C155.7 284.025 129.4 274.025 109.5 254.125L30 174.625C10.6 155.325 0 129.625 0 102.325C0 74.925 10.6 49.225 30 29.925C69.9 -9.975 134.9 -9.975 174.8 29.925L254.3 109.325C273.7 128.725 284.3 154.425 284.3 181.725Z" fill="#085FCE"/>
</g>
<g opacity="0.7">
<path d="M364.4 102.325C364.4 129.625 353.7 155.325 334.4 174.625L254.9 254.125C234.9 274.025 208.7 284.025 182.4 284.025C156.2 284.025 130 274.025 110 254.125C90.7 234.725 80 209.025 80 181.725C80 154.425 90.7 128.725 110 109.325L189.5 29.925C229.5 -9.975 294.4 -9.975 334.4 29.925C353.7 49.225 364.4 74.925 364.4 102.325Z" fill="#3DE2FF"/>
</g>
</svg>
